<svg width="315" height="328" viewBox="0 0 315 328" fill="none" xmlns="http://www.w3.org/2000/svg">
<path d="M2 185V92L79.7516 137.953L2 185Z" fill="#384E68"/>
<path d="M79 139V46L162 91.9529L79 139Z" fill="#263547"/>
<path d="M161.066 185.312V92.6565L78.9673 138.439L161.066 185.312Z" fill="#384E68"/>
<path d="M78.9672 138.985V46.3296L2.00002 92.1124L78.9672 138.985Z" fill="#2ECC71"/>
<path d="M161.066 92.6557V0L78.9673 45.7828L161.066 92.6557Z" fill="#54D98C"/>
<path d="M315 185.312V92.6565L238.033 138.439L315 185.312Z" fill="#2ECC71"/>
<path d="M238 139V46L160 91.9529L238 139Z" fill="#54D98C"/>
<path d="M161.066 185.312V92.6565L238.033 138.439L161.066 185.312Z" fill="#2ECC71"/>
<path d="M238.033 138.985V46.3296L315 92.1124L238.033 138.985Z" fill="#384E68"/>
<path d="M161.066 92.6557V0L238.033 45.7828L161.066 92.6557Z" fill="#263547"/>
<path d="M78.9672 185.312V277.968L161.065 232.185L78.9672 185.312Z" fill="#263547"/>
<path d="M79 185V278L0 232.047L79 185Z" fill="#54D98C"/>
<path d="M161 226V328L79 277.6L161 226Z" fill="#2ECC71"/>
<path d="M238.033 185.312V277.968L161.066 232.185L238.033 185.312Z" fill="#263547"/>
<path d="M238.033 185.312V277.968L315 232.185L238.033 185.312Z" fill="#2ECC71"/>
<path d="M161 226V328L238 277.6L161 226Z" fill="#54D98C"/>
</svg>
