<svg width="403" height="96" viewBox="0 0 403 96" fill="none" xmlns="http://www.w3.org/2000/svg">
<path d="M6.10352e-05 54.2955V27.1477L22.6232 40.5619L6.10352e-05 54.2955Z" fill="#384E68"/>
<path d="M22.6231 40.722V13.5742L46.7544 26.9884L22.6231 40.722Z" fill="#263547"/>
<path d="M46.7544 54.2955V27.1477L22.6231 40.5619L46.7544 54.2955Z" fill="#384E68"/>
<path d="M22.6231 40.722V13.5742L-2.47955e-05 26.9884L22.6231 40.722Z" fill="#2ECC71"/>
<path d="M46.7544 27.1478V0L22.6231 13.4142L46.7544 27.1478Z" fill="#54D98C"/>
<path d="M92.0008 54.2955V27.1477L69.3777 40.5619L92.0008 54.2955Z" fill="#2ECC71"/>
<path d="M69.3776 40.722V13.5742L46.7544 26.9884L69.3776 40.722Z" fill="#54D98C"/>
<path d="M46.7544 54.2955V27.1477L69.3775 40.5619L46.7544 54.2955Z" fill="#2ECC71"/>
<path d="M69.3776 40.722V13.5742L92.0007 26.9884L69.3776 40.722Z" fill="#384E68"/>
<path d="M46.7544 27.1478V0L69.3775 13.4142L46.7544 27.1478Z" fill="#263547"/>
<path d="M22.6231 54.2956V81.4434L46.7544 68.0292L22.6231 54.2956Z" fill="#263547"/>
<path d="M22.6231 54.2956V81.4434L-2.47955e-05 68.0292L22.6231 54.2956Z" fill="#54D98C"/>
<path d="M46.7544 66.3614V95.0173L22.6231 80.8579L46.7544 66.3614Z" fill="#2ECC71"/>
<path d="M69.3776 54.2956V81.4434L46.7544 68.0292L69.3776 54.2956Z" fill="#263547"/>
<path d="M69.3776 54.2956V81.4434L92.0007 68.0292L69.3776 54.2956Z" fill="#2ECC71"/>
<path d="M46.7544 66.3614V95.0173L69.3775 80.8579L46.7544 66.3614Z" fill="#54D98C"/>
<path d="M120.095 39C118.998 39 117.985 38.7327 117.057 38.1982C116.129 37.6356 115.397 36.9041 114.863 36.0038C114.328 35.0755 114.061 34.0486 114.061 32.9233V30.3491H120.138V32.6279C120.138 32.7123 120.152 32.7826 120.18 32.8389C120.236 32.867 120.292 32.8811 120.349 32.8811H138.03C138.086 32.8811 138.143 32.867 138.199 32.8389C138.255 32.7826 138.283 32.7123 138.283 32.6279V27.0998C138.283 27.0435 138.255 27.0013 138.199 26.9732C138.143 26.9169 138.086 26.8888 138.03 26.8888H120.095C118.998 26.8888 117.985 26.6215 117.057 26.087C116.129 25.5243 115.397 24.7788 114.863 23.8504C114.328 22.9221 114.061 21.9093 114.061 20.8121V14.6932C114.061 13.5679 114.328 12.5551 114.863 11.6548C115.397 10.7264 116.129 9.99499 117.057 9.46046C117.985 8.8978 118.998 8.61648 120.095 8.61648H138.368C139.465 8.61648 140.464 8.8978 141.364 9.46046C142.292 9.99499 143.038 10.7264 143.6 11.6548C144.163 12.5551 144.444 13.5679 144.444 14.6932V17.2673H138.283V14.9886C138.283 14.9042 138.255 14.8479 138.199 14.8198C138.143 14.7635 138.086 14.7354 138.03 14.7354H120.349C120.292 14.7354 120.236 14.7635 120.18 14.8198C120.152 14.8479 120.138 14.9042 120.138 14.9886V20.5167C120.138 20.573 120.152 20.6292 120.18 20.6855C120.236 20.7136 120.292 20.7277 120.349 20.7277H138.368C139.465 20.7277 140.464 21.009 141.364 21.5717C142.292 22.1062 143.038 22.8377 143.6 23.766C144.163 24.6944 144.444 25.7072 144.444 26.8044V32.9233C144.444 34.0486 144.163 35.0755 143.6 36.0038C143.038 36.9041 142.292 37.6356 141.364 38.1982C140.464 38.7327 139.465 39 138.368 39H120.095ZM148.839 39V32.5857L170.108 14.7354H148.839V8.61648H179.223V15.0308L157.954 32.8811H179.223V39H148.839ZM183.75 39V8.61648H189.869V20.7277H196.41L206.538 8.61648H213.037V10.5576L201.896 23.8082L213.037 37.0588V39H206.538L196.41 26.8888H189.869V39H183.75ZM223.328 39C222.203 39 221.176 38.7327 220.248 38.1982C219.347 37.6356 218.616 36.9041 218.053 36.0038C217.519 35.0755 217.251 34.0486 217.251 32.9233V14.6932C217.251 13.5679 217.519 12.5551 218.053 11.6548C218.616 10.7264 219.347 9.99499 220.248 9.46046C221.176 8.8978 222.203 8.61648 223.328 8.61648H241.558C242.655 8.61648 243.654 8.8978 244.554 9.46046C245.483 9.99499 246.228 10.7264 246.791 11.6548C247.354 12.5551 247.635 13.5679 247.635 14.6932V32.9233C247.635 34.0486 247.354 35.0755 246.791 36.0038C246.228 36.9041 245.483 37.6356 244.554 38.1982C243.654 38.7327 242.655 39 241.558 39H223.328ZM223.581 32.8811H241.221C241.305 32.8811 241.361 32.867 241.389 32.8389C241.446 32.7826 241.474 32.7123 241.474 32.6279V14.9886C241.474 14.9042 241.446 14.8479 241.389 14.8198C241.361 14.7635 241.305 14.7354 241.221 14.7354H223.581C223.497 14.7354 223.427 14.7635 223.37 14.8198C223.342 14.8479 223.328 14.9042 223.328 14.9886V32.6279C223.328 32.7123 223.342 32.7826 223.37 32.8389C223.427 32.867 223.497 32.8811 223.581 32.8811ZM252.282 39V8.61648H258.739L276.505 29.8005V8.61648H282.666V39H276.209L258.359 17.7315V39H252.282ZM298.028 39V14.7354H285.874V8.61648H316.258V14.7354H304.146V39H298.028ZM319.498 39V8.61648H347.518V14.7354H325.659V20.7277H343.256V26.8888H325.659V32.8811H347.518V39H319.498ZM375.607 39L366.619 28.2814H374.595L382.022 37.101V39H375.607ZM351.723 39V8.65867H375.987C377.113 8.65867 378.125 8.94 379.026 9.50266C379.954 10.0372 380.699 10.7686 381.262 11.697C381.825 12.6254 382.106 13.6382 382.106 14.7354V22.7533C382.106 23.8504 381.825 24.8632 381.262 25.7916C380.699 26.6919 379.954 27.4233 379.026 27.986C378.125 28.5205 377.113 28.7878 375.987 28.7878L357.799 28.83V39H351.723ZM358.053 22.6689H375.692C375.776 22.6689 375.832 22.6548 375.861 22.6267C375.917 22.5704 375.945 22.5141 375.945 22.4579V14.9886C375.945 14.9042 375.917 14.8479 375.861 14.8198C375.832 14.7635 375.776 14.7354 375.692 14.7354H358.053C357.968 14.7354 357.898 14.7635 357.842 14.8198C357.813 14.8479 357.799 14.9042 357.799 14.9886V22.4579C357.799 22.5141 357.813 22.5704 357.842 22.6267C357.898 22.6548 357.968 22.6689 358.053 22.6689Z" fill="#263547"/>
<path d="M123.177 88H116.727L116.748 86.4958H123.177C125.141 86.4958 126.865 86.0494 128.349 85.1565C129.832 84.2499 130.986 82.9792 131.81 81.3445C132.635 79.7099 133.047 77.7798 133.047 75.5545V70.4032C133.047 68.7273 132.806 67.2231 132.325 65.8907C131.858 64.5445 131.185 63.3975 130.306 62.4496C129.441 61.5018 128.41 60.7737 127.215 60.2655C126.02 59.7572 124.702 59.5031 123.259 59.5031H116.604V57.9989H123.259C124.921 57.9989 126.446 58.2874 127.834 58.8643C129.221 59.4275 130.423 60.2517 131.439 61.3369C132.456 62.4084 133.246 63.7134 133.809 65.2519C134.372 66.7904 134.654 68.5213 134.654 70.4444V75.5545C134.654 77.4776 134.372 79.2085 133.809 80.747C133.246 82.2855 132.449 83.5974 131.419 84.6826C130.402 85.754 129.193 86.5782 127.792 87.1552C126.405 87.7184 124.866 88 123.177 88ZM117.263 57.9989V88H115.635V57.9989H117.263ZM158.144 86.4958V88H142.257V86.4958H158.144ZM142.937 57.9989V88H141.309V57.9989H142.937ZM156.248 71.8044V73.3085H142.257V71.8044H156.248ZM158.102 57.9989V59.5031H142.257V57.9989H158.102ZM172.114 84.7856L181.036 57.9989H182.808L172.588 88H171.207L172.114 84.7856ZM162.45 57.9989L171.372 84.7856L172.279 88H170.898L160.678 57.9989H162.45ZM204.34 86.4958V88H188.454V86.4958H204.34ZM189.134 57.9989V88H187.506V57.9989H189.134ZM202.445 71.8044V73.3085H188.454V71.8044H202.445ZM204.299 57.9989V59.5031H188.454V57.9989H204.299ZM225.337 86.4958V88H210.852V86.4958H225.337ZM211.532 57.9989V88H209.883V57.9989H211.532ZM248.786 70.1147V75.9048C248.786 77.8417 248.545 79.5862 248.065 81.1385C247.584 82.677 246.89 83.9889 245.983 85.0741C245.091 86.1593 244.005 86.9903 242.728 87.5673C241.45 88.1442 240.015 88.4327 238.421 88.4327C236.842 88.4327 235.406 88.1442 234.115 87.5673C232.837 86.9903 231.738 86.1593 230.818 85.0741C229.911 83.9889 229.211 82.677 228.716 81.1385C228.236 79.5862 227.995 77.8417 227.995 75.9048V70.1147C227.995 68.1641 228.236 66.4195 228.716 64.881C229.197 63.3288 229.891 62.01 230.797 60.9248C231.718 59.8396 232.81 59.0154 234.074 58.4522C235.351 57.8753 236.78 57.5868 238.36 57.5868C239.967 57.5868 241.409 57.8753 242.687 58.4522C243.964 59.0154 245.056 59.8396 245.963 60.9248C246.883 62.01 247.584 63.3288 248.065 64.881C248.545 66.4195 248.786 68.1641 248.786 70.1147ZM247.158 75.9048V70.0735C247.158 68.3839 246.966 66.866 246.581 65.5198C246.196 64.1598 245.626 63.006 244.871 62.0581C244.129 61.1103 243.209 60.3891 242.11 59.8946C241.024 59.3863 239.774 59.1322 238.36 59.1322C236.986 59.1322 235.756 59.3863 234.671 59.8946C233.586 60.3891 232.666 61.1103 231.91 62.0581C231.155 63.006 230.585 64.1598 230.2 65.5198C229.815 66.866 229.623 68.3839 229.623 70.0735V75.9048C229.623 77.6081 229.815 79.1398 230.2 80.4997C230.598 81.8459 231.175 82.9998 231.931 83.9614C232.686 84.9092 233.607 85.6373 234.692 86.1455C235.791 86.6401 237.034 86.8873 238.421 86.8873C239.822 86.8873 241.066 86.6401 242.151 86.1455C243.236 85.6373 244.15 84.9092 244.891 83.9614C245.647 82.9998 246.21 81.8459 246.581 80.4997C246.966 79.1398 247.158 77.6081 247.158 75.9048ZM264.343 75.5133H256.245V73.9885H264.343C266.087 73.9885 267.502 73.6726 268.587 73.0407C269.686 72.395 270.483 71.5365 270.977 70.465C271.486 69.3798 271.74 68.1847 271.74 66.8797C271.74 65.5335 271.486 64.3041 270.977 63.1914C270.483 62.065 269.686 61.1721 268.587 60.5127C267.502 59.8396 266.087 59.5031 264.343 59.5031H257.048V88H255.421V57.9989H264.343C266.321 57.9989 267.976 58.3698 269.308 59.1116C270.641 59.8396 271.651 60.8699 272.337 62.2024C273.024 63.5211 273.368 65.0665 273.368 66.8385C273.368 68.6243 273.024 70.1697 272.337 71.4747C271.664 72.7659 270.655 73.7618 269.308 74.4624C267.976 75.163 266.321 75.5133 264.343 75.5133ZM279.796 57.9989H281.486L292.221 85.548L302.977 57.9989H304.626L292.86 88H291.603L279.796 57.9989ZM279.281 57.9989H280.785L280.909 74.0297V88H279.281V57.9989ZM303.698 57.9989H305.203V88H303.595V74.0297L303.698 57.9989ZM329.743 86.4958V88H313.857V86.4958H329.743ZM314.537 57.9989V88H312.909V57.9989H314.537ZM327.848 71.8044V73.3085H313.857V71.8044H327.848ZM329.702 57.9989V59.5031H313.857V57.9989H329.702ZM355.335 57.9989V88H353.707L336.935 60.966V88H335.286V57.9989H336.935L353.707 84.9916V57.9989H355.335ZM371.139 57.9989V88H369.532V57.9989H371.139ZM380.844 57.9989V59.5031H359.827V57.9989H380.844Z" fill="#2ECC71"/>
</svg>
